<svg xmlns="http://www.w3.org/2000/svg"  viewBox="0 0 48 48" width="48px" height="48px" baseProfile="basic"><rect width="3" height="3" x="33" y="24" fill="#6d4c41"/><rect width="36" height="36" x="6" y="6" fill="#3e2723"/><rect width="30" height="30" x="9" y="9" fill="#8d6e63"/><polygon fill="#6d4c41" points="36,21 36,24 33,24 33,12 18,12 18,15 30,15 30,27 33,27 33,30 36,30 36,27 39,27 39,21"/><rect width="12" height="12" x="18" y="15" fill="#5d4037"/><rect width="3" height="3" x="9" y="39" fill="#212121"/><rect width="3" height="3" x="18" y="39" fill="#212121"/><rect width="3" height="3" x="30" y="39" fill="#212121"/><rect width="3" height="3" x="33" y="39" fill="#212121"/><rect width="36" height="3" x="6" y="18" fill="#3e2723"/><rect width="12" height="3" x="18" y="18" fill="#212121"/><rect width="3" height="3" x="21" y="18" fill="#9e9e9e"/><rect width="3" height="3" x="24" y="18" fill="#757575"/><rect width="3" height="3" x="21" y="21" fill="#757575"/><rect width="3" height="3" x="24" y="21" fill="#616161"/><rect width="3" height="3" x="21" y="15" fill="#bdbdbd"/><rect width="3" height="3" x="24" y="15" fill="#9e9e9e"/><rect width="3" height="3" x="6" y="27" fill="#212121"/><rect width="3" height="3" x="39" y="30" fill="#212121"/><rect width="3" height="3" x="6" y="15" fill="#212121"/><rect width="3" height="3" x="39" y="18" fill="#212121"/><rect width="3" height="6" x="39" y="6" fill="#212121"/><rect width="3" height="3" x="39" y="36" fill="#212121"/><rect width="3" height="3" x="6" y="39" fill="#212121"/><rect width="6" height="3" x="12" y="30" fill="#795548"/><rect width="3" height="3" x="27" y="36" fill="#795548"/><rect width="3" height="3" x="9" y="33" fill="#795548"/><rect width="3" height="9" x="30" y="27" fill="#795548"/><rect width="3" height="3" x="36" y="9" fill="#795548"/><rect width="3" height="3" x="36" y="30" fill="#6d4c41"/><rect width="3" height="3" x="15" y="27" fill="#6d4c41"/><rect width="3" height="3" x="18" y="30" fill="#6d4c41"/><rect width="6" height="3" x="21" y="27" fill="#6d4c41"/><rect width="3" height="3" x="27" y="30" fill="#6d4c41"/><polygon fill="#795548" points="21,30 21,39 24,39 24,33 27,33 27,30"/><rect width="3" height="3" x="9" y="36" fill="#6d4c41"/><rect width="3" height="3" x="12" y="33" fill="#6d4c41"/><rect width="6" height="3" x="15" y="36" fill="#6d4c41"/><rect width="6" height="3" x="9" y="9" fill="#6d4c41"/><polygon fill="#6d4c41" points="33,33 33,36 30,36 30,39 36,39 36,33"/><rect width="3" height="6" x="15" y="12" fill="#795548"/><rect width="6" height="3" x="21" y="9" fill="#795548"/><rect width="3" height="3" x="33" y="15" fill="#795548"/><rect width="3" height="3" x="33" y="21" fill="#795548"/><polygon fill="#795548" points="12,21 12,24 9,24 9,30 12,30 12,27 18,27 18,21"/><rect width="3" height="6" x="36" y="33" fill="#795548"/></svg>